<mxfile host="app.diagrams.net" modified="2022-08-29T09:24:39.249Z" agent="5.0 (Windows NT 10.0; Win64; x64) AppleWebKit/537.36 (KHTML, like Gecko) Chrome/103.0.0.0 Safari/537.36" etag="J61cu9EFpxiT5lH7T-hu" version="20.2.7" type="github">
  <diagram id="U7w3jC6lCQdBwr4YhOEJ" name="第 1 页">
    <mxGraphModel dx="782" dy="474" grid="0" gridSize="10" guides="1" tooltips="1" connect="1" arrows="1" fold="1" page="1" pageScale="1" pageWidth="827" pageHeight="1169" math="0" shadow="0">
      <root>
        <mxCell id="0" />
        <mxCell id="1" parent="0" />
        <mxCell id="xpR3RBR38ZASa95FE2hc-2" value="" style="ellipse;whiteSpace=wrap;html=1;aspect=fixed;container=0;" vertex="1" parent="1">
          <mxGeometry x="260" y="200" width="200" height="200" as="geometry" />
        </mxCell>
        <mxCell id="xpR3RBR38ZASa95FE2hc-9" value="" style="line;strokeWidth=4;html=1;perimeter=backbonePerimeter;points=[];outlineConnect=0;" vertex="1" parent="1">
          <mxGeometry x="450" y="295" width="20" height="10" as="geometry" />
        </mxCell>
        <mxCell id="xpR3RBR38ZASa95FE2hc-10" value="" style="line;strokeWidth=4;html=1;perimeter=backbonePerimeter;points=[];outlineConnect=0;" vertex="1" parent="1">
          <mxGeometry x="250" y="295" width="20" height="10" as="geometry" />
        </mxCell>
        <mxCell id="xpR3RBR38ZASa95FE2hc-11" value="" style="line;strokeWidth=4;direction=south;html=1;perimeter=backbonePerimeter;points=[];outlineConnect=0;" vertex="1" parent="1">
          <mxGeometry x="340" y="190" width="10" height="20" as="geometry" />
        </mxCell>
        <mxCell id="xpR3RBR38ZASa95FE2hc-12" value="" style="line;strokeWidth=4;direction=south;html=1;perimeter=backbonePerimeter;points=[];outlineConnect=0;" vertex="1" parent="1">
          <mxGeometry x="370" y="190" width="10" height="20" as="geometry" />
        </mxCell>
        <mxCell id="xpR3RBR38ZASa95FE2hc-13" value="" style="line;strokeWidth=4;direction=south;html=1;perimeter=backbonePerimeter;points=[];outlineConnect=0;" vertex="1" parent="1">
          <mxGeometry x="340" y="390" width="10" height="20" as="geometry" />
        </mxCell>
        <mxCell id="xpR3RBR38ZASa95FE2hc-14" value="" style="line;strokeWidth=4;direction=south;html=1;perimeter=backbonePerimeter;points=[];outlineConnect=0;" vertex="1" parent="1">
          <mxGeometry x="370" y="390" width="10" height="20" as="geometry" />
        </mxCell>
        <mxCell id="xpR3RBR38ZASa95FE2hc-15" value="-1" style="text;html=1;strokeColor=none;fillColor=none;align=center;verticalAlign=middle;whiteSpace=wrap;rounded=0;fontStyle=1;fontSize=14;" vertex="1" parent="1">
          <mxGeometry x="325" y="170" width="40" height="20" as="geometry" />
        </mxCell>
        <mxCell id="xpR3RBR38ZASa95FE2hc-16" value="0" style="text;html=1;strokeColor=none;fillColor=none;align=center;verticalAlign=middle;whiteSpace=wrap;rounded=0;fontStyle=1;fontSize=14;" vertex="1" parent="1">
          <mxGeometry x="355" y="170" width="40" height="20" as="geometry" />
        </mxCell>
        <mxCell id="xpR3RBR38ZASa95FE2hc-17" value="63" style="text;html=1;strokeColor=none;fillColor=none;align=center;verticalAlign=middle;whiteSpace=wrap;rounded=0;fontStyle=1;fontSize=14;" vertex="1" parent="1">
          <mxGeometry x="470" y="290" width="40" height="20" as="geometry" />
        </mxCell>
        <mxCell id="xpR3RBR38ZASa95FE2hc-18" value="127" style="text;html=1;strokeColor=none;fillColor=none;align=center;verticalAlign=middle;whiteSpace=wrap;rounded=0;fontStyle=1;fontSize=14;" vertex="1" parent="1">
          <mxGeometry x="355" y="410" width="40" height="20" as="geometry" />
        </mxCell>
        <mxCell id="xpR3RBR38ZASa95FE2hc-19" value="-128" style="text;html=1;strokeColor=none;fillColor=none;align=center;verticalAlign=middle;whiteSpace=wrap;rounded=0;fontStyle=1;fontSize=14;" vertex="1" parent="1">
          <mxGeometry x="325" y="410" width="40" height="20" as="geometry" />
        </mxCell>
        <mxCell id="xpR3RBR38ZASa95FE2hc-21" value="-64" style="text;html=1;strokeColor=none;fillColor=none;align=center;verticalAlign=middle;whiteSpace=wrap;rounded=0;fontStyle=1;fontSize=14;" vertex="1" parent="1">
          <mxGeometry x="210" y="290" width="40" height="20" as="geometry" />
        </mxCell>
        <mxCell id="xpR3RBR38ZASa95FE2hc-24" value="" style="verticalLabelPosition=bottom;verticalAlign=top;html=1;shape=mxgraph.basic.arc;startAngle=0.7027207621902226;endAngle=0.16027662358221492;fontSize=14;labelBackgroundColor=none;labelBorderColor=none;fillColor=#ffe6cc;strokeColor=#FF8000;strokeWidth=3;" vertex="1" parent="1">
          <mxGeometry x="260" y="200" width="200" height="198" as="geometry" />
        </mxCell>
        <mxCell id="xpR3RBR38ZASa95FE2hc-26" value="b" style="text;html=1;strokeColor=none;fillColor=none;align=center;verticalAlign=middle;whiteSpace=wrap;rounded=0;fontStyle=1;fontSize=14;fontColor=#FF8000;" vertex="1" parent="1">
          <mxGeometry x="448" y="239" width="40" height="20" as="geometry" />
        </mxCell>
        <mxCell id="xpR3RBR38ZASa95FE2hc-27" value="a" style="text;html=1;strokeColor=none;fillColor=none;align=center;verticalAlign=middle;whiteSpace=wrap;rounded=0;fontStyle=1;fontSize=14;fontColor=#FF8000;" vertex="1" parent="1">
          <mxGeometry x="224" y="318" width="40" height="20" as="geometry" />
        </mxCell>
        <mxCell id="xpR3RBR38ZASa95FE2hc-28" value="c" style="text;html=1;strokeColor=none;fillColor=none;align=center;verticalAlign=middle;whiteSpace=wrap;rounded=0;fontStyle=1;fontSize=14;fontColor=#FF8000;" vertex="1" parent="1">
          <mxGeometry x="272" y="185" width="40" height="20" as="geometry" />
        </mxCell>
        <mxCell id="xpR3RBR38ZASa95FE2hc-29" value="" style="line;strokeWidth=4;html=1;perimeter=backbonePerimeter;points=[];outlineConnect=0;strokeColor=#FF8000;" vertex="1" parent="1">
          <mxGeometry x="435" y="244" width="20" height="10" as="geometry" />
        </mxCell>
        <mxCell id="xpR3RBR38ZASa95FE2hc-30" value="" style="line;strokeWidth=4;html=1;perimeter=backbonePerimeter;points=[];outlineConnect=0;strokeColor=#FF8000;" vertex="1" parent="1">
          <mxGeometry x="256" y="323" width="20" height="10" as="geometry" />
        </mxCell>
      </root>
    </mxGraphModel>
  </diagram>
</mxfile>
